#!OML:ASF F:\VICON\USERDATA\INSTALL\rory3\rory3.ASF
:FULLY-SPECIFIED
:DEGREES
2576
root -1.96981 18.7756 0.485229 -171.506 73.7531 188.534
lowerback 8.57863 -0.578696 -6.20983
upperback 2.61059 -1.21052 -0.944111
thorax -1.98178 -0.554857 2.62975
lowerneck -1.68979 -14.6837 -11.66
upperneck 3.59764 -20.1512 14.6768
head 4.03199 -9.84941 5.02871
rclavicle -7.15625e-015 9.54166e-015
rhumerus -29.0657 1.3208 -79.8758
rradius 32.4614
rwrist 23.7984
rhand -41.6818 9.43491
rfingers 7.12502
rthumb -14.5886 339.968
lclavicle -7.15625e-015 9.54166e-015
lhumerus -34.9828 -5.86477 82.5349
lradius 50.2635
lwrist -7.31527
lhand -19.1891 21.6705
lfingers 7.12502
lthumb 7.12258 51.5306
rfemur -16.2973 22.122 8.85864
rtibia 24.0108
rfoot -6.00704 -1.89906
rtoes -7.84906
lfemur -3.97672 -6.22888 -19.4157
ltibia 23.35
lfoot -21.7741 24.8251
ltoes -0.196674
2577
root -1.97998 18.7763 0.462046 -171.432 73.8934 188.603
lowerback 8.5826 -0.604103 -6.26139
upperback 2.58942 -1.24955 -0.801865
thorax -1.99788 -0.575144 2.81042
lowerneck -1.7357 -14.5794 -11.649
upperneck 3.88157 -20.0194 14.5105
head 4.08833 -9.78076 4.9827
rclavicle 1.41137e-014 -2.78299e-014
rhumerus -29.1841 1.8902 -80.2093
rradius 32.4251
rwrist 23.2707
rhand -42.0947 8.94232
rfingers 7.12502
rthumb -14.9863 339.505
lclavicle 1.41137e-014 -2.78299e-014
lhumerus -34.8282 -5.79982 82.8424
lradius 49.6608
lwrist -7.17412
lhand -18.8123 21.4114
lfingers 7.12502
lthumb 7.48633 51.259
rfemur -16.2779 22.0762 8.94523
rtibia 24.0253
rfoot -6.37143 -2.71903
rtoes -8.50587
lfemur -3.9602 -6.14954 -19.5146
ltibia 23.3285
lfoot -21.8013 24.8825
ltoes -0.110901
2578
root -1.99001 18.776 0.443976 -171.001 74.009 188.961
lowerback 8.48371 -0.617995 -6.25249
upperback 2.56329 -1.26157 -0.651669
thorax -1.96597 -0.583885 2.96107
lowerneck -1.74558 -14.4785 -11.524
upperneck 4.10674 -19.8882 14.3031
head 4.10578 -9.71489 4.91485
rclavicle 2.66371e-014 7.95139e-016
rhumerus -29.2592 1.9493 -80.4017
rradius 32.3965
rwrist 23.0712
rhand -42.1903 8.60681
rfingers 7.12502
rthumb -15.0785 339.176
lclavicle 2.66371e-014 7.95139e-016
lhumerus -34.6137 -5.69425 83.117
lradius 49.0175
lwrist -7.00268
lhand -18.9862 21.3595
lfingers 7.12502
lthumb 7.3185 51.2129
rfemur -16.3296 22.0135 9.14051
rtibia 24.0464
rfoot -6.67094 -3.60548
rtoes -9.26871
lfemur -4.04836 -5.85684 -19.4622
ltibia 23.2844
lfoot -21.6765 24.8206
ltoes -0.389435
2579
root -1.99369 18.7773 0.421254 -170.376 74.1406 189.606
lowerback 8.36542 -0.612552 -5.98465
upperback 2.57555 -1.22405 -0.591038
thorax -1.89683 -0.568853 2.86798
lowerneck -1.72263 -14.3894 -11.3544
upperneck 4.38205 -19.7847 14.1362
head 4.13706 -9.6606 4.85042
rclavicle 5.50634e-014 7.95139e-016
rhumerus -29.3287 1.9444 -80.6929
rradius 32.3117
rwrist 22.7337
rhand -42.1997 8.00129
rfingers 7.12502
rthumb -15.0875 338.571
lclavicle 5.50634e-014 7.95139e-016
lhumerus -34.3321 -5.80801 83.3139
lradius 48.3115
lwrist -6.75477
lhand -19.4598 21.6091
lfingers 7.12502
lthumb 6.86127 51.4779
rfemur -16.2478 22.0923 9.43117
rtibia 24.0581
rfoot -7.10869 -4.45772
rtoes -9.25496
lfemur -4.00252 -5.93578 -19.4109
ltibia 23.2519
lfoot -21.7788 25.0505
ltoes -0.517522
2580
root -1.99122 18.7771 0.391903 -170.211 74.3836 189.902
lowerback 8.28884 -0.60624 -5.74772
upperback 2.61093 -1.1899 -0.584998
thorax -1.82657 -0.554741 2.73643
lowerneck -1.78162 -14.2785 -11.2639
upperneck 4.83035 -19.6558 13.9223
head 4.23389 -9.58891 4.77386
rclavicle -2.42517e-014 -2.38542e-015
rhumerus -29.4147 2.2117 -81.1153
rradius 32.2245
rwrist 21.8513
rhand -42.4479 6.55258
rfingers 7.12502
rthumb -15.3266 337.141
lclavicle -2.42517e-014 -2.38542e-015
lhumerus -34.1182 -6.11757 83.5298
lradius 47.5767
lwrist -6.26691
lhand -19.6388 21.675
lfingers 7.12502
lthumb 6.68847 51.5493
rfemur -16.0278 22.0985 9.65294
rtibia 24.0607
rfoot -7.51286 -5.16895
rtoes -8.83746
lfemur -3.76644 -6.07854 -19.5395
ltibia 23.2339
lfoot -22.2371 25.256
ltoes 0.220488
2581
root -1.99089 18.7762 0.36177 -170.245 74.6192 190.001
lowerback 8.28646 -0.616646 -5.58743
upperback 2.62918 -1.18984 -0.562083
thorax -1.80978 -0.555705 2.67008
lowerneck -1.8675 -14.1408 -11.1948
upperneck 5.25408 -19.4828 13.6965
head 4.3237 -9.49601 4.70047
rclavicle -2.28602e-014 -1.35174e-014
rhumerus -29.5222 2.41749 -81.4496
rradius 32.1444
rwrist 20.8537
rhand -42.864 5.73901
rfingers 7.12502
rthumb -15.7274 336.358
lclavicle -2.28602e-014 -1.35174e-014
lhumerus -33.8915 -6.56905 83.8021
lradius 46.7116
lwrist -5.58104
lhand -19.6249 21.443
lfingers 7.12502
lthumb 6.70191 51.3169
rfemur -15.7765 21.9834 9.86278
rtibia 24.0526
rfoot -7.79845 -5.8939
rtoes -8.37852
lfemur -3.52432 -6.31282 -19.7325
ltibia 23.2245
lfoot -22.7569 25.4846
ltoes 1.27926
2582
root -1.99331 18.7721 0.337634 -170.225 74.7313 190.042
lowerback 8.24654 -0.667335 -5.407
upperback 2.60671 -1.24276 -0.568665
thorax -1.81124 -0.58223 2.56652
lowerneck -1.92394 -14.0083 -10.9838
upperneck 5.62204 -19.3144 13.4379
head 4.37605 -9.4062 4.60241
rclavicle 2.5842e-015 7.15625e-015
rhumerus -29.6152 2.4403 -81.6776
rradius 32.0558
rwrist 20.417
rhand -42.7214 5.5329
rfingers 7.12502
rthumb -15.59 336.141
lclavicle 2.5842e-015 7.15625e-015
lhumerus -33.6458 -7.01528 83.9771
lradius 45.7998
lwrist -4.90794
lhand -19.655 21.2503
lfingers 7.12502
lthumb 6.67283 51.1251
rfemur -15.6049 21.707 10.0783
rtibia 24.0672
rfoot -8.10271 -6.62854
rtoes -7.98884
lfemur -3.44881 -6.72822 -19.8991
ltibia 23.246
lfoot -23.1772 25.8567
ltoes 2.07617
2583
root -1.99696 18.7692 0.31886 -170.139 74.7438 190.074
lowerback 8.13743 -0.728544 -5.22296
upperback 2.57555 -1.30618 -0.576228
thorax -1.78298 -0.614953 2.45962
lowerneck -1.99769 -13.8711 -10.81
upperneck 6.01247 -19.1448 13.2496
head 4.44975 -9.31252 4.52756
rclavicle -3.99557e-014 1.59028e-015
rhumerus -29.713 2.41429 -81.821
rradius 32.0372
rwrist 20.2292
rhand -42.2921 4.8442
rfingers 7.12502
rthumb -15.1766 335.421
lclavicle -3.99557e-014 1.59028e-015
lhumerus -33.3272 -7.15027 84.1008
lradius 44.9295
lwrist -4.46328
lhand -19.5813 21.3249
lfingers 7.12502
lthumb 6.74399 51.1975
rfemur -15.5275 21.2512 10.3259
rtibia 24.1185
rfoot -8.3775 -7.40986
rtoes -7.86079
lfemur -3.52717 -6.82334 -19.9666
ltibia 23.3081
lfoot -23.3046 25.9665
ltoes 1.80692
2584
root -2.00007 18.7686 0.304822 -170.014 74.7746 190.124
lowerback 8.03418 -0.76538 -5.17584
upperback 2.52382 -1.34896 -0.5094
thorax -1.77569 -0.637314 2.50486
lowerneck -2.14001 -13.7338 -10.6967
upperneck 6.47252 -18.9675 12.9959
head 4.55478 -9.21456 4.43532
rclavicle 6.57977e-014 -4.77083e-015
rhumerus -29.7551 2.09884 -81.7358
rradius 31.9298
rwrist 20.1654
rhand -41.2618 4.21056
rfingers 7.12502
rthumb -14.1839 334.715
lclavicle 6.57977e-014 -4.77083e-015
lhumerus -32.9219 -6.62139 84.1716
lradius 43.9991
lwrist -4.59435
lhand -19.1932 21.3028
lfingers 7.12502
lthumb 7.11861 51.1631
rfemur -15.5042 20.8836 10.5989
rtibia 24.2208
rfoot -8.51427 -8.29958
rtoes -7.96532
lfemur -3.66374 -6.58518 -19.9616
ltibia 23.3707
lfoot -23.2653 25.8384
ltoes 0.999548
2585
root -1.99682 18.764 0.292938 -170.149 74.8919 189.935
lowerback 7.90042 -0.775324 -5.28428
upperback 2.48705 -1.3648 -0.426074
thorax -1.73341 -0.647314 2.65107
lowerneck -2.34905 -13.6016 -10.5906
upperneck 7.01024 -18.7902 12.6619
head 4.68802 -9.11578 4.31366
rclavicle -1.43125e-014 2.70347e-014
rhumerus -29.7366 1.72302 -81.5238
rradius 31.7316
rwrist 20.1063
rhand -39.7777 3.89827
rfingers 7.12502
rthumb -12.7535 334.308
lclavicle -1.43125e-014 2.70347e-014
lhumerus -32.4278 -5.68519 84.165
lradius 42.9025
lwrist -5.10501
lhand -18.874 20.8007
lfingers 7.12502
lthumb 7.42677 50.6504
rfemur -15.4581 20.6666 10.8003
rtibia 24.3608
rfoot -8.71608 -9.2138
rtoes -7.58957
lfemur -3.72451 -6.47869 -20.0807
ltibia 23.4441
lfoot -23.3384 25.8798
ltoes 0.499954
2586
root -1.9872 18.7613 0.28084 -170.385 75.1083 189.683
lowerback 7.7443 -0.787216 -5.4145
upperback 2.44924 -1.38377 -0.375911
thorax -1.67965 -0.659008 2.77491
lowerneck -2.52389 -13.4288 -10.682
upperneck 7.68491 -18.5788 12.5044
head 4.89096 -8.99645 4.27299
rclavicle 4.77083e-015 1.43125e-014
rhumerus -29.7962 1.80148 -81.4983
rradius 31.5299
rwrist 20.0283
rhand -39.0414 3.61125
rfingers 7.12502
rthumb -12.0435 333.978
lclavicle 4.77083e-015 1.43125e-014
lhumerus -32.0422 -5.20282 84.1732
lradius 41.778
lwrist -5.12642
lhand -18.8607 20.5462
lfingers 7.12502
lthumb 7.43963 50.3954
rfemur -15.3736 20.5235 10.9846
rtibia 24.5168
rfoot -9.05483 -9.99988
rtoes -6.79828
lfemur -3.69639 -6.52707 -20.2798
ltibia 23.5364
lfoot -23.5535 26.0932
ltoes 0.69651
2587
root -1.98187 18.7593 0.272819 -169.786 75.2498 190.24
lowerback 7.62298 -0.845243 -5.33238
upperback 2.37539 -1.4524 -0.278299
thorax -1.68278 -0.694107 2.83417
lowerneck -2.73822 -13.1996 -10.7699
upperneck 8.43625 -18.2929 12.36
head 5.11717 -8.83701 4.24091
rclavicle -3.78685e-014 1.59028e-014
rhumerus -29.7966 1.99274 -81.5397
rradius 31.1583
rwrist 19.9821
rhand -38.6902 3.74959
rfingers 7.12502
rthumb -11.705 334.097
lclavicle -3.78685e-014 1.59028e-014
lhumerus -31.7232 -4.90448 84.1365
lradius 40.7402
lwrist -5.01304
lhand -18.7457 20.5918
lfingers 7.12502
lthumb 7.55058 50.4371
rfemur -15.3416 20.2568 11.4416
rtibia 24.6784
rfoot -9.31044 -10.7693
rtoes -5.89567
lfemur -3.76569 -6.30286 -20.1501
ltibia 23.6187
lfoot -23.6549 26.018
ltoes 0.667814
2588
root -1.98009 18.7549 0.265675 -169.165 75.3428 190.869
lowerback 7.59585 -0.90336 -5.1797
upperback 2.31883 -1.5201 -0.192681
thorax -1.72262 -0.727434 2.84308
lowerneck -3.00675 -12.9749 -10.7693
upperneck 9.15981 -18.0055 12.1866
head 5.33401 -8.67463 4.18694
rclavicle -1.37161e-014 -1.51076e-014
rhumerus -29.6945 1.73456 -81.4334
rradius 30.6005
rwrist 19.9431
rhand -37.9108 3.72529
rfingers 7.12502
rthumb -10.9532 334.031
lclavicle -1.37161e-014 -1.51076e-014
lhumerus -31.3191 -4.41904 84.01
lradius 39.6569
lwrist -5.21445
lhand -18.5663 20.6094
lfingers 7.12502
lthumb 7.72379 50.4483
rfemur -15.2565 19.8657 11.9917
rtibia 24.86
rfoot -9.50033 -11.5064
rtoes -5.67633
lfemur -3.78518 -6.05524 -19.9828
ltibia 23.6836
lfoot -23.6939 25.8844
ltoes 0.483412
2589
root -1.97388 18.7501 0.253597 -169.491 75.4745 190.629
lowerback 7.60765 -0.954686 -5.16763
upperback 2.30607 -1.58926 -0.211305
thorax -1.73734 -0.761371 2.82333
lowerneck -3.27425 -12.7266 -10.7378
upperneck 9.86752 -17.6891 12.0556
head 5.54513 -8.49565 4.14683
rclavicle -1.33186e-014 2.38542e-014
rhumerus -29.6167 1.63035 -81.3541
rradius 30.0719
rwrist 19.5918
rhand -37.2453 3.23241
rfingers 7.12502
rthumb -10.3113 333.505
lclavicle -1.33186e-014 2.38542e-014
lhumerus -30.8825 -4.07947 83.8483
lradius 38.4514
lwrist -5.44351
lhand -18.4562 20.5457
lfingers 7.12502
lthumb 7.83001 50.3807
rfemur -15.0546 19.4911 12.3026
rtibia 25.0592
rfoot -9.81153 -12.1523
rtoes -5.45615
lfemur -3.66851 -6.10055 -20.1525
ltibia 23.7615
lfoot -23.845 26.0091
ltoes 0.41596
